<svg width="30" height="30" viewBox="0 0 30 30" fill="none" xmlns="http://www.w3.org/2000/svg">
<path fill-rule="evenodd" clip-rule="evenodd" d="M14.5272 27.6524C14.664 27.7564 14.8311 27.8128 15.003 27.8129C15.1716 27.8122 15.3354 27.7574 15.4705 27.6566C18.1482 25.6577 21.286 23.2607 24.2585 20.6349L24.4715 20.4466C25.1511 19.8659 25.7966 19.2465 26.4048 18.5915C29.263 15.3928 30.243 9.63345 26.8407 5.90544C25.2087 4.09879 22.9023 3.04727 20.4681 3.00004C18.4532 2.99376 16.5066 3.72979 14.9999 5.0676C13.4931 3.72988 11.5465 2.99386 9.53166 3.00004C7.0975 3.04752 4.79121 4.09899 3.15899 5.90544C-0.242704 9.63345 0.736779 15.3907 3.59548 18.591C4.20578 19.2485 4.85392 19.8698 5.53661 20.4518L5.74646 20.637C8.52647 23.0928 14.2832 27.4677 14.5272 27.6524ZM4.32472 6.96466C5.65679 5.48223 7.54232 4.61627 9.53481 4.57183V4.57392C11.3882 4.56977 13.1595 5.33777 14.4233 6.69343C14.7445 7.00864 15.2589 7.00864 15.5801 6.69343C16.8438 5.33672 18.6156 4.56792 20.4697 4.57183C22.4621 4.61627 24.3477 5.48223 25.6797 6.96466C28.4902 10.0437 27.6361 14.8514 25.2333 17.5401C24.6649 18.1497 24.0621 18.7263 23.428 19.2672L23.2182 19.4556C20.4644 21.8883 17.5517 24.1321 15.0083 26.0375C13.5493 24.9211 9.07104 21.4712 6.79152 19.4571L6.58167 19.2714C5.94576 18.7294 5.34144 18.1513 4.7717 17.5401C2.3689 14.8514 1.51481 10.0437 4.32472 6.96466Z" fill="#2E2842"/>
<mask id="mask0" mask-type="alpha" maskUnits="userSpaceOnUse" x="1" y="3" width="28" height="25">
<path fill-rule="evenodd" clip-rule="evenodd" d="M14.5272 27.6524C14.664 27.7564 14.8311 27.8128 15.003 27.8129C15.1716 27.8122 15.3354 27.7574 15.4705 27.6566C18.1482 25.6577 21.286 23.2607 24.2585 20.6349L24.4715 20.4466C25.1511 19.8659 25.7966 19.2465 26.4048 18.5915C29.263 15.3928 30.243 9.63345 26.8407 5.90544C25.2087 4.09879 22.9023 3.04727 20.4681 3.00004C18.4532 2.99376 16.5066 3.72979 14.9999 5.0676C13.4931 3.72988 11.5465 2.99386 9.53166 3.00004C7.0975 3.04752 4.79121 4.09899 3.15899 5.90544C-0.242704 9.63345 0.736779 15.3907 3.59548 18.591C4.20578 19.2485 4.85392 19.8698 5.53661 20.4518L5.74646 20.637C8.52647 23.0928 14.2832 27.4677 14.5272 27.6524ZM4.32472 6.96466C5.65679 5.48223 7.54232 4.61627 9.53481 4.57183V4.57392C11.3882 4.56977 13.1595 5.33777 14.4233 6.69343C14.7445 7.00864 15.2589 7.00864 15.5801 6.69343C16.8438 5.33672 18.6156 4.56792 20.4697 4.57183C22.4621 4.61627 24.3477 5.48223 25.6797 6.96466C28.4902 10.0437 27.6361 14.8514 25.2333 17.5401C24.6649 18.1497 24.0621 18.7263 23.428 19.2672L23.2182 19.4556C20.4644 21.8883 17.5517 24.1321 15.0083 26.0375C13.5493 24.9211 9.07104 21.4712 6.79152 19.4571L6.58167 19.2714C5.94576 18.7294 5.34144 18.1513 4.7717 17.5401C2.3689 14.8514 1.51481 10.0437 4.32472 6.96466Z" fill="white"/>
</mask>
<g mask="url(#mask0)">
<rect x="1" y="1.40648" width="28" height="28" fill="#448aff "/>
</g>
</svg>
