<svg width="20" height="20" viewBox="0 0 20 20" fill="none" xmlns="http://www.w3.org/2000/svg">
<g clip-path="url(#clip0)">
<path fill-rule="evenodd" clip-rule="evenodd" d="M18.3118 1.53645H6.10409C6.01981 1.53645 5.95149 1.60477 5.95149 1.68905V13.8968C5.95149 13.9811 6.01981 14.0494 6.10409 14.0494H18.3118C18.3961 14.0494 18.4644 13.9811 18.4644 13.8968V1.68905C18.4644 1.60477 18.3961 1.53645 18.3118 1.53645ZM6.10409 0.163086C5.26133 0.163086 4.57812 0.846284 4.57812 1.68905V13.8968C4.57812 14.7395 5.26133 15.4227 6.10409 15.4227H18.3118C19.1546 15.4227 19.8378 14.7395 19.8378 13.8968V1.68905C19.8378 0.846284 19.1546 0.163086 18.3118 0.163086H6.10409Z" fill="#448aff"/>
<path fill-rule="evenodd" clip-rule="evenodd" d="M15.2597 15.423H13.8863V18.4749C13.8863 18.5592 13.818 18.6275 13.7337 18.6275H1.52597C1.44169 18.6275 1.37337 18.5592 1.37337 18.4749V6.26718C1.37337 6.1829 1.44169 6.11458 1.52597 6.11458H4.5779V4.74121H1.52597C0.683198 4.74121 0 5.42441 0 6.26718V18.4749C0 19.3177 0.683198 20.0009 1.52597 20.0009H13.7337C14.5765 20.0009 15.2597 19.3177 15.2597 18.4749V15.423Z" fill="#448aff"/>
<path fill-rule="evenodd" clip-rule="evenodd" d="M11.4656 2.81177H16.6157C16.9317 2.81177 17.1879 3.06797 17.1879 3.384V8.53414C17.1879 8.85017 16.9317 9.10637 16.6157 9.10637C16.2996 9.10637 16.0434 8.85017 16.0434 8.53414V4.76551L11.0857 9.72325L10.2764 8.91398L15.2342 3.95624H11.4656C11.1495 3.95624 10.8933 3.70004 10.8933 3.384C10.8933 3.06797 11.1495 2.81177 11.4656 2.81177Z" fill="#448aff"/>
</g>
<defs>
<clipPath id="clip0">
<rect width="20" height="20" fill="white"/>
</clipPath>
</defs>
</svg>
