<svg width="24" height="24" viewBox="0 0 24 24" fill="none" xmlns="http://www.w3.org/2000/svg">
<path fill-rule="evenodd" clip-rule="evenodd" d="M18.0686 9.22411C17.0975 9.22469 16.1562 8.89206 15.4039 8.28258C15.1655 8.08969 14.9488 7.87172 14.7577 7.63249L12.2782 8.97278C11.9238 9.16431 11.4802 9.03447 11.2872 8.68278C11.0942 8.33109 11.225 7.89072 11.5794 7.69919L14.059 6.35891C13.958 6.06384 13.8901 5.75863 13.8564 5.44879C13.6136 3.13562 15.3059 1.065 17.6364 0.823823C19.9669 0.582643 22.0532 2.26221 22.2963 4.57536C22.5395 6.8885 20.8475 8.95937 18.517 9.20091C18.3681 9.21633 18.2184 9.22408 18.0686 9.22411ZM19.8313 2.86697C19.2582 2.40564 18.5239 2.18929 17.79 2.26555L17.7905 2.26942C16.8674 2.3662 16.0535 2.91314 15.6202 3.72795C15.1869 4.54276 15.191 5.5183 15.6313 6.32942L15.6357 6.33618C16.2709 7.49193 17.6396 8.04201 18.906 7.65045C20.1723 7.25888 20.9842 6.03454 20.8457 4.72523C20.7693 3.99677 20.4044 3.32829 19.8313 2.86697ZM13.3402 19.608C13.3402 17.2819 15.24 15.3963 17.5835 15.3963C19.9261 15.3987 21.8245 17.2829 21.8269 19.608C21.8269 21.9341 19.9271 23.8198 17.5835 23.8198C15.24 23.8198 13.3402 21.9341 13.3402 19.608ZM15.0128 20.6643C15.4435 21.6964 16.4581 22.3693 17.5835 22.3693C19.1195 22.368 20.3644 21.1326 20.366 19.608C20.3662 18.491 19.6884 17.4838 18.6487 17.0562C17.609 16.6285 16.4121 16.8647 15.6162 17.6545C14.8203 18.4443 14.5822 19.6323 15.0128 20.6643ZM11.8375 15.8893L8.96442 14.0811C9.12113 13.7031 9.222 13.3046 9.2639 12.8979C9.50189 10.5841 7.80506 8.51694 5.47393 8.28071C3.14279 8.04448 1.06009 9.72866 0.822077 12.0425C0.584063 14.3562 2.28087 16.4235 4.612 16.6597C4.75759 16.6748 4.90388 16.6822 5.05026 16.6819C6.02475 16.6827 6.96935 16.3481 7.72317 15.7351C7.88492 15.6013 8.03661 15.4559 8.17701 15.3001L11.0501 17.1111C11.2704 17.25 11.5486 17.2616 11.7799 17.1416C12.0112 17.0216 12.1605 16.7883 12.1714 16.5295C12.1824 16.2707 12.0534 16.0257 11.8331 15.8869L11.8375 15.8893ZM4.76247 15.2174C3.64291 15.1041 2.70245 14.3324 2.37972 13.2623C2.05698 12.1922 2.41556 11.0345 3.2882 10.3292C4.16084 9.62392 5.37565 9.50991 6.36601 10.0404C7.35638 10.5708 7.92722 11.6413 7.81228 12.7524C7.65362 14.267 6.29094 15.3691 4.76442 15.2174H4.76247Z" fill="#2E2842"/>
<mask id="mask0" mask-type="alpha" maskUnits="userSpaceOnUse" x="0" y="0" width="23" height="24">
<path fill-rule="evenodd" clip-rule="evenodd" d="M18.0686 9.22411C17.0975 9.22469 16.1562 8.89206 15.4039 8.28258C15.1655 8.08969 14.9488 7.87172 14.7577 7.63249L12.2782 8.97278C11.9238 9.16431 11.4802 9.03447 11.2872 8.68278C11.0942 8.33109 11.225 7.89072 11.5794 7.69919L14.059 6.35891C13.958 6.06384 13.8901 5.75863 13.8564 5.44879C13.6136 3.13562 15.3059 1.065 17.6364 0.823823C19.9669 0.582643 22.0532 2.26221 22.2963 4.57536C22.5395 6.8885 20.8475 8.95937 18.517 9.20091C18.3681 9.21633 18.2184 9.22408 18.0686 9.22411ZM19.8313 2.86697C19.2582 2.40564 18.5239 2.18929 17.79 2.26555L17.7905 2.26942C16.8674 2.3662 16.0535 2.91314 15.6202 3.72795C15.1869 4.54276 15.191 5.5183 15.6313 6.32942L15.6357 6.33618C16.2709 7.49193 17.6396 8.04201 18.906 7.65045C20.1723 7.25888 20.9842 6.03454 20.8457 4.72523C20.7693 3.99677 20.4044 3.32829 19.8313 2.86697ZM13.3402 19.608C13.3402 17.2819 15.24 15.3963 17.5835 15.3963C19.9261 15.3987 21.8245 17.2829 21.8269 19.608C21.8269 21.9341 19.9271 23.8198 17.5835 23.8198C15.24 23.8198 13.3402 21.9341 13.3402 19.608ZM15.0128 20.6643C15.4435 21.6964 16.4581 22.3693 17.5835 22.3693C19.1195 22.368 20.3644 21.1326 20.366 19.608C20.3662 18.491 19.6884 17.4838 18.6487 17.0562C17.609 16.6285 16.4121 16.8647 15.6162 17.6545C14.8203 18.4443 14.5822 19.6323 15.0128 20.6643ZM11.8375 15.8893L8.96442 14.0811C9.12113 13.7031 9.222 13.3046 9.2639 12.8979C9.50189 10.5841 7.80506 8.51694 5.47393 8.28071C3.14279 8.04448 1.06009 9.72866 0.822077 12.0425C0.584063 14.3562 2.28087 16.4235 4.612 16.6597C4.75759 16.6748 4.90388 16.6822 5.05026 16.6819C6.02475 16.6827 6.96935 16.3481 7.72317 15.7351C7.88492 15.6013 8.03661 15.4559 8.17701 15.3001L11.0501 17.1111C11.2704 17.25 11.5486 17.2616 11.7799 17.1416C12.0112 17.0216 12.1605 16.7883 12.1714 16.5295C12.1824 16.2707 12.0534 16.0257 11.8331 15.8869L11.8375 15.8893ZM4.76247 15.2174C3.64291 15.1041 2.70245 14.3324 2.37972 13.2623C2.05698 12.1922 2.41556 11.0345 3.2882 10.3292C4.16084 9.62392 5.37565 9.50991 6.36601 10.0404C7.35638 10.5708 7.92722 11.6413 7.81228 12.7524C7.65362 14.267 6.29094 15.3691 4.76442 15.2174H4.76247Z" fill="white"/>
</mask>
<g mask="url(#mask0)">
<rect x="-0.462891" y="0.800049" width="23.3739" height="23.2" fill="#979CA5"/>
</g>
</svg>
